<?xml version="1.0" encoding="UTF-8" standalone="no"?>
<!DOCTYPE svg PUBLIC "-//W3C//DTD SVG 1.1//EN" "http://www.w3.org/Graphics/SVG/1.1/DTD/svg11.dtd">
<svg width="100%" height="100%" viewBox="0 0 32 32" version="1.1" xmlns="http://www.w3.org/2000/svg" xmlns:xlink="http://www.w3.org/1999/xlink" xml:space="preserve" xmlns:serif="http://www.serif.com/" style="fill-rule:evenodd;clip-rule:evenodd;stroke-linejoin:round;stroke-miterlimit:2;">
    <g transform="matrix(1,0,0,1,-100,0)">
        <g transform="matrix(1,0,0,1,-40,0)">
            <rect id="icon-32-dark" x="140" y="0" width="32" height="32" style="fill:none;"/>
            <g id="icon-32-dark1" serif:id="icon-32-dark">
                <g transform="matrix(1,0,0,1,82,2)">
                    <path d="M80,2L82.438,2C84.404,2 86,3.596 86,5.562L86,26.438C86,28.404 84.404,30 82.438,30L65.562,30C63.596,30 62,28.404 62,26.438L62,5.562C62,3.596 63.596,2 65.562,2L68,2L68,1.75C68,0.784 68.784,0 69.75,0L78.25,0C79.216,0 80,0.784 80,1.75L80,2ZM68,4L65.562,4C64.7,4 64,4.7 64,5.562L64,26.438C64,27.3 64.7,28 65.562,28L82.438,28C83.3,28 84,27.3 84,26.438L84,5.562C84,4.7 83.3,4 82.438,4L80,4L80,4.25C80,5.216 79.216,6 78.25,6L69.75,6C68.784,6 68,5.216 68,4.25L68,4ZM70,2L70,4L78,4L78,2L70,2ZM82,16L67.788,16C66.822,16 66.038,15.216 66.038,14.25L66.038,10.75C66.038,9.784 66.822,9 67.788,9L76.288,9C77.254,9 78.038,9.784 78.038,10.75L78.038,14L82,14L82,16ZM76.038,14L76.038,11L68.038,11L68.038,14L76.038,14ZM81.981,25L67.769,25C66.803,25 66.019,24.216 66.019,23.25L66.019,19.75C66.019,18.784 66.803,18 67.769,18L76.269,18C77.235,18 78.019,18.784 78.019,19.75L78.019,23L81.981,23L81.981,25ZM76.019,23L76.019,20L68.019,20L68.019,23L76.019,23Z" style="fill:white;"/>
                </g>
            </g>
        </g>
    </g>
</svg>
