<?xml version="1.0" encoding="UTF-8" standalone="no"?>
<!DOCTYPE svg PUBLIC "-//W3C//DTD SVG 1.1//EN" "http://www.w3.org/Graphics/SVG/1.1/DTD/svg11.dtd">
<svg width="100%" height="100%" viewBox="0 0 32 32" version="1.1" xmlns="http://www.w3.org/2000/svg" xmlns:xlink="http://www.w3.org/1999/xlink" xml:space="preserve" xmlns:serif="http://www.serif.com/" style="fill-rule:evenodd;clip-rule:evenodd;stroke-linejoin:round;stroke-miterlimit:2;">
    <g transform="matrix(1,0,0,1,-58,0)">
        <g transform="matrix(0.666667,0,0,0.666667,-7.33333,0)">
            <rect id="icon-32-light" x="98" y="0" width="48" height="48" style="fill:none;"/>
            <g id="icon-32-light1" serif:id="icon-32-light">
                <g transform="matrix(1.5,0,0,1.5,11,3)">
                    <path d="M80,2L82.438,2C84.404,2 86,3.596 86,5.562L86,26.438C86,28.404 84.404,30 82.438,30L65.562,30C63.596,30 62,28.404 62,26.438L62,5.562C62,3.596 63.596,2 65.562,2L68,2L68,1.75C68,0.784 68.784,0 69.75,0L78.25,0C79.216,0 80,0.784 80,1.75L80,2ZM68,4L65.562,4C64.7,4 64,4.7 64,5.562L64,26.438C64,27.3 64.7,28 65.562,28L82.438,28C83.3,28 84,27.3 84,26.438L84,5.562C84,4.7 83.3,4 82.438,4L80,4L80,4.25C80,5.216 79.216,6 78.25,6L69.75,6C68.784,6 68,5.216 68,4.25L68,4ZM70,2L70,4L78,4L78,2L70,2ZM81.981,16.003L67.769,16.003C66.803,16.003 66.019,15.219 66.019,14.253L66.019,10.753C66.019,9.787 66.803,9.003 67.769,9.003L76.269,9.003C77.235,9.003 78.019,9.787 78.019,10.753L78.019,14.003L81.981,14.003L81.981,16.003ZM76.019,14.003L76.019,11.003L68.019,11.003L68.019,14.003L76.019,14.003ZM81.962,25.003L67.75,25.003C66.784,25.003 66,24.219 66,23.253L66,19.753C66,18.787 66.784,18.003 67.75,18.003L76.25,18.003C77.216,18.003 78,18.787 78,19.753L78,23.003L81.962,23.003L81.962,25.003ZM76,23.003L76,20.003L68,20.003L68,23.003L76,23.003Z"/>
                </g>
            </g>
        </g>
    </g>
</svg>
